# xmcd
#
# Track frame offsets:
#	150
#	31727
#	53946
#	75313
#	98235
#	116235
#	139580
#	158705
#	178956
#	201459
#	221425
#	236332
#	261083
#	289490
#	310303
#	329429
#
# Disc length: 4670 seconds
#
# Revision: 0
# Processed by: cddbd v1.5.2PL0 Copyright (c) Steve Scherf et al.
# Submitted via: dBpowerAMP V4.0
#
DISCID=ea123c10
DTITLE=Various Artist - Fantazia Club Classics
DYEAR=2006
DGENRE=General Electronic
TTITLE0=David Morales feat. Lea Lonen/BootyLuv - How Would You Feel/Boogie 2nite (acapella)
TTITLE1=M-Gee feat. Mica Paris - Bodyswerve (grant nelson mix)
TTITLE2=Coloursound - Fly With Me
TTITLE3=Bob Sinclar - I Feel For You
TTITLE4=Space Cowboy - Crazy Talk (pique and nelson's "you will miss me" mix)
TTITLE5=Junior Jack - Stupidisco
TTITLE6=Mylo - Drop The Pressure
TTITLE7=Chab feat. JD Davis - Closer To Me
TTITLE8=Studio B - I See Girls (Crazy) (tom neville mix)
TTITLE9=Carl Kennedy and Johmmy Gleeson Present Southside Hustlers - Right Before My Eyes (hoxton whores mix)
TTITLE10=Fedde Le Grande - Put Your Hands Up For Detroit
TTITLE11=Freeform Five - No More Conversations (mylos remix)
TTITLE12=Deux - Sun Rising Up
TTITLE13=Till West and Delicious - Same Man
TTITLE14=Mason - Exceeder
TTITLE15=David Guetta Vs The Egg - Love Don't Let Me Go (Walking Away)
EXTD=Fantazia Club Classics CD3 Rob Marmot 2001 - present day
EXTT0=
EXTT1=
EXTT2=
EXTT3=
EXTT4=
EXTT5=
EXTT6=
EXTT7=
EXTT8=
EXTT9=
EXTT10=
EXTT11=
EXTT12=
EXTT13=
EXTT14=
EXTT15=
PLAYORDER=
